<svg width="86" height="68" viewBox="0 0 86 68" fill="none" xmlns="http://www.w3.org/2000/svg">
<g clip-path="url(#clip0_2578_49026)">
<path d="M75.0585 49.9104L80.2666 43.8826L75.4443 38.8916L80.58 33.2013L75.6493 28.0053L80.6282 22.5802L75.4443 17.2095L84.8116 6.90186L47.4029 0.0482226V19.6628C46.6253 19.5422 43.9248 19.5 42.9242 19.4759C41.7186 19.4759 39.4943 19.6326 38.3671 19.7472V0L0.946369 6.92598L10.3257 17.2336L5.13571 22.6044L10.5186 28.0294L5.33463 33.2254L10.6693 38.9157L5.24421 43.9067L10.6693 49.9345L0 64.6063L38.331 58.5242L38.3792 40.8928C39.8792 40.6218 41.3999 40.4806 42.9242 40.4708C44.4213 40.4651 45.9161 40.5922 47.3908 40.8506L47.439 58.5784L85.7459 64.6063L75.0585 49.9104Z" fill="#BCBEC0"/>
<path d="M72.3339 49.7415L77.3672 43.9669L72.1591 38.7649L77.3672 33.2313L72.4063 28.0534L77.4636 22.4958L72.3339 17.1913L80.5137 8.01692L49.5487 2.20007V21.905C47.9996 21.7724 45.4377 21.5072 42.9181 21.4891C41.4051 21.4891 38.0959 21.7483 36.1911 21.9111V2.20609L5.23213 8.02898L13.442 17.2033L8.28221 22.5018L13.3456 28.0594L8.37865 33.2374L13.5867 38.7709L8.37865 44.0031L13.4179 49.7717L4.68359 61.966L36.3297 56.776V39.217C38.4962 38.826 40.6926 38.6243 42.894 38.6142C45.0626 38.6012 47.2271 38.8031 49.3558 39.217V56.776L81.0019 61.96L72.3339 49.7415Z" fill="#231F20"/>
<path d="M69.4285 49.7237L74.51 43.9671L69.4285 38.8856C69.4285 38.6988 74.51 33.2315 74.51 33.2315L69.4285 28.1501C69.4285 27.9572 74.51 22.496 74.51 22.496L69.4225 17.2216L76.5293 9.38543L53.4005 5.17198V24.6539C49.9314 24.1248 46.4323 23.8147 42.9242 23.7256C39.3806 23.7531 35.8449 24.0656 32.3514 24.66V5.17801L9.21656 9.39749L16.3234 17.2337L11.2359 22.508C11.2359 22.508 16.3234 27.9692 16.3234 28.1621L11.2359 33.2436C11.2359 33.2436 16.3234 38.7108 16.3234 38.9037L11.2359 44.0033L16.3234 49.7538L9.04175 59.1753L32.3272 55.3476V37.3485C34.8951 36.6794 40.5854 36.2394 42.894 36.2937C46.4141 36.4223 49.9219 36.7827 53.3945 37.3726C53.3945 39.0544 53.4367 55.3657 53.4367 55.3657L76.686 59.1994L69.4285 49.7237Z" fill="white"/>
<path d="M68.2833 16.5042L74.076 10.169L54.5398 6.5523V25.8715C50.694 25.2758 46.8144 24.9235 42.9242 24.8166C38.9932 24.7936 35.0691 25.1488 31.2061 25.8775V6.54627L11.6699 10.163L17.4807 16.5103V50.3746L11.899 57.5417L31.188 54.3711L31.2302 36.4202C34.2441 35.5401 40.3081 35.1423 42.9363 35.1543C46.8353 35.2373 50.7198 35.6589 54.5459 36.4142L54.5881 54.365L73.8771 57.5357L68.3134 50.3686L68.2833 16.5042Z" fill="#005838"/>
<path d="M65.637 28.4454L60.8992 23.5749L65.637 18.7044V28.4454Z" fill="white"/>
<path d="M65.637 38.0899L60.8992 33.2194L65.637 28.3489V38.0899Z" fill="white"/>
<path d="M65.637 47.8187L60.8992 42.9483L65.637 38.0778V47.8187Z" fill="white"/>
<path d="M20.115 28.4514L24.8468 23.581L20.115 18.7105V28.4514Z" fill="white"/>
<path d="M20.115 38.102L24.8468 33.2315L20.115 28.355V38.102Z" fill="white"/>
<path d="M20.115 47.8307L24.8468 42.9603L20.115 38.0898V47.8307Z" fill="white"/>
<path d="M78.3619 65.9084V66.1555H77.7591V67.9639H77.512V66.1555H76.9092V65.9084H78.3619Z" fill="#231F20"/>
<path d="M78.5545 65.9084H78.8921L79.3984 67.6625L79.9048 65.9084H80.2484V67.982H80.0193V66.7764C80.0193 66.7342 80.0193 66.6619 80.0193 66.5654V66.252L79.513 68.0001H79.2718L78.7655 66.252V66.3062C78.7655 66.3545 78.7655 66.4328 78.7655 66.5353V67.988H78.5425L78.5545 65.9084Z" fill="#231F20"/>
</g>
<defs>
<clipPath id="clip0_2578_49026">
<rect width="85.952" height="68" fill="white"/>
</clipPath>
</defs>
</svg>
