<svg version="1.1" id="Layer_1" xmlns="http://www.w3.org/2000/svg" x="0" y="0" viewBox="0 0 200 200" xml:space="preserve"><style>.st1{fill:#6fb1c8}.st2{fill:#007298}</style><path d="M194.57 57.684c-25.014-19.378-47.951-28.016-74.389-28.016-2.995 0-5.557.037-8.627.272C87.95.613 50.455 11.415 50.455 11.415s22.574 9.142 17.127 29.479c-9.78 4.485-18.224 10.201-25.411 16.959C5.121 76.681 4 99.633 4 99.633s8.256-5.844 21.501-9.468c-6.465 10.97-3.896 29.403 2.561 35.411.547-2.118 1.289-4.896 1.797-5.512.835 6.548 3.87 12.788 8.227 18.684 8.555 11.543 21.923 17.901 37.634 17.923.999 0 2.028-.064 3.107-.185 12.412 37.929 47.087 34.166 47.087 34.166s-20.175-16.949-17.028-31.817c14.328-15.193 33.483-24.95 49.371-25.281 5.438-.113 13.598 2.04 14.504 2.309-7.048-13.265-19.244-17.731-28.46-17.731-10.798 0-21.027 4.982-32.31 10.745-.122-8.164-2.762-11.898-2.762-11.898s-29.603 2.353-27.996-14.528c.353-3.713 4.28-7.59 9.571-7.967 10.259-.731 18.935 14.647 18.935 14.647s2.722-6.618 1.248-17.141c5.5.628 11.557 1.289 18.297 1.289 11.857 0 22.342-2.002 32.068-6.129 12.247-5.2 23.233-13.638 33.591-25.802.46-.531 1.723-1.995 1.723-1.995s-1.547-1.241-2.096-1.669" fill="#fff"/><path class="st1" d="m65.527 97.256.557-.865 35.922-13.829s-39.177-11.3-44.998 16.759c0 0 2.629-1.459 3.914-1.596-.658 3.148.313 18.528 18.522 19.539L69.265 99.481l-3.738-2.225z"/><path class="st1" d="M7.188 94.666S36.701 69.662 88.709 60.89c0 0 .347 4.168 3.919 7.364 0 0 1.317-4.889 5.451-10.152 0 0-.258 4.659 2.82 9.023 0 0 2.821-5.983 6.11-9.118 0 0 35.466-7.642 80.712 7.268 0 0-19.08-24.224-72.06-13.357l6.736-8.101-29.62 1.739S28.241 62.667 10.492 89.16c-1.204 1.793-2.568 3.628-3.304 5.506"/><path class="st2" d="M167.518 132.317c-19.553-21.391-38.79-8.407-60.558 2.402 2.061-4.639 2.85-8.56 1.607-14.704-11.889 21.342-39.345 20.592-52.295 8.331-12.884-12.199-15.283-34.966 3.922-52.65-15.673 1.78-42.565 13.831-34.291 42.307a46.8 46.8 0 0 0 1.312 3.219c.913-4.911 2.973-9.191 6.161-12.066-4.506 14.855 8.47 45.061 42.462 45.104 1.515 0 3.147-.161 4.841-.462 5.823 18.471 19.733 32.811 39.376 34.438 0 0-18.383-15.601-13.467-30.876 18.627-20.029 44.01-29.77 60.93-25.043"/><path class="st2" d="M110.124 32.533c-8.811-9.829-26.544-24.177-52.815-20.181 0 0 18.522 8.32 13.065 30.021-10.139 4.509-19.245 10.477-26.585 17.45C27.745 68.377 12.471 80.056 6.968 95.01 28.059 74.58 58.934 62.4 89.522 56.712c1.862-2.983 3.918-6.59 7.913-8.275 0 0-6.687 6.751-5.092 15.025 1.037-2.917 5.671-13.63 12.915-17.164 0 0-6.708 6.638-4.639 15.283 1.407-4.7 5.11-12.844 11.815-15.661 0 0-3.505 3.151-5.604 8.242 32.12-3.525 61.73-.047 76.589 8.277-.001.034-.029.07-.066.107.003.006.006.006.012.012-7.274 8.314-15.455 13.598-24.059 16.855-2.621-2.165-11.005-8.398-21.929-9.604-13.702-2.535-26.735 5.049-26.735 5.049 13.011.543 22.274 6.39 25.932 9.118-2.8.164-5.601.223-8.395.193-3.018-2.229-6.983-4.517-11.066-5.009 1.789 1.106 3.34 2.962 4.572 4.807-3.589-.18-7.126-.462-10.606-.769-23.066-2.723-38.235-6.136-44.818 9.942-8.217 20.069 12.682 27.675 23.319 24.892-5.32-1.359-17.552-10.081-9.646-21.024 8.531-11.811 24.67-3.092 29.322 8.523 0 0 .89-10.86-2.197-16.456.977.055 1.963.11 2.95.185 23.551 2.725 53.784 4.768 83.119-29.686-22.146-17.154-47.869-30.091-83.004-27.041m24.393 16.635s-3.714-4.275-1.933-8.129l6.127 2.913a3.373 3.373 0 0 0-.237 1.633c1.102.121 2.674.31 2.674.31l-2.112 1.2a3.386 3.386 0 0 0 3.297 1.465 3.394 3.394 0 0 0 2.465-1.717L149.357 49l-14.84.168zm12.074 33.75 2.087-5.445-8.025 1.263 1.431-4.025-8.064 1.684 1.023-3.48-7.633 1.083.979-2.471a25.95 25.95 0 0 1 4.942-.173l1.604.127c6.393.67 13.855 3.433 18.855 9.658l-7.199 1.779z"/><path class="st1" d="M108.303 35.149S90.805 14.665 68.594 14.19c0 0 22.866 4.106 32.672 22.248-15.549 2.722-31.794 8.636-45.319 18.701 50.127-27.449 97.058-14.841 97.058-14.841-13.522-8.186-44.702-5.149-44.702-5.149"/></svg>